<?xml version="1.0" encoding="utf-8"?>
<!-- Generator: Adobe Illustrator 24.3.0, SVG Export Plug-In . SVG Version: 6.00 Build 0)  -->
<svg version="1.1" id="Layer_3" xmlns="http://www.w3.org/2000/svg" xmlns:xlink="http://www.w3.org/1999/xlink" x="0px" y="0px"
	 viewBox="0 0 512 512" style="enable-background:new 0 0 512 512;" xml:space="preserve">
<g>
	<path d="M215.2,275.5C244.3,259,264,227.8,264,192v-16c17.6,0,32-14.4,32-32s-14.4-32-32-32V16c0-3.2-1.9-6.2-4.9-7.4
		c-3-1.2-6.4-0.6-8.7,1.7c-14,14-32.5,21.7-52.3,21.7H104c-17.6,0-32,14.4-32,32v48c-17.6,0-32,14.4-32,32s14.4,32,32,32v16
		c0,35.8,19.7,67,48.8,83.5C56.4,289.8,8,347.3,8,416v80c0,4.4,3.6,8,8,8h304c4.4,0,8-3.6,8-8v-80
		C328,347.3,279.6,289.8,215.2,275.5z M127.2,290.5l30.3,30.3L144,338.7l-32.9-43.8C116.3,293,121.7,291.6,127.2,290.5z M152,288h32
		c1.5,0,3,0.2,4.5,0.2L168,308.7l-20.5-20.5C149,288.2,150.5,288,152,288z M208.8,290.5c5.5,1.1,10.8,2.6,16,4.4L192,338.7
		l-13.4-17.9L208.8,290.5z M88,192v-64h56c22.5,0,43.7-12,55.3-31.3l0.7-1.1l0.7,1.1c10.2,17,27.9,28.4,47.3,30.8V192
		c0,6.6-0.9,12.9-2.4,19c-21-17.5-47.2-27-74.9-27h-5.5c-27.7,0-53.9,9.6-74.9,27C88.9,204.9,88,198.6,88,192L88,192z M280,144
		c0,8.8-7.2,16-16,16v-32C272.8,128,280,135.2,280,144z M104,48h94.1c18,0,35.3-5.3,49.9-15.1v78.4c-13.8-2.4-26.3-10.6-33.6-22.8
		l-7.5-12.6c-2.9-4.8-10.8-4.8-13.7,0l-7.5,12.6C176.9,103,160.9,112,144,112H88V64C88,55.2,95.2,48,104,48z M56,144
		c0-8.8,7.2-16,16-16v32C63.2,160,56,152.8,56,144z M96.3,227.3c18.8-17.5,43.1-27.3,69-27.3h5.5c25.8,0,50.2,9.7,69,27.3
		c-7,14.2-18.1,26-31.7,33.9V240h-16v28.3c-5.1,1.6-10.5,2.7-16,3.3V240h-16v31.6c-5.5-0.6-10.9-1.7-16-3.3V240h-16v21.2
		C114.4,253.3,103.3,241.4,96.3,227.3L96.3,227.3z M24,416c0-50.4,29.4-94,71.9-114.9l41.7,55.7c1.5,2,3.9,3.2,6.4,3.2
		s4.9-1.2,6.4-3.2L160,344v144H72v-96H56v96H24L24,416z M312,488h-32v-96h-16v96h-88V344l9.6,12.8c1.5,2,3.9,3.2,6.4,3.2
		s4.9-1.2,6.4-3.2l41.7-55.7C282.6,322,312,365.6,312,416V488z"/>
	<path d="M200,376h48v16h-48V376z"/>
	<path d="M375.4,68.8l-24-56C350.1,9.9,347.2,8,344,8s-6.1,1.9-7.4,4.8l-24,56h0c-0.4,1-0.7,2-0.7,3.2v248c0,17.6,14.4,32,32,32
		s32-14.4,32-32V72C376,70.9,375.8,69.8,375.4,68.8z M344,36.3L355.9,64h-23.7L344,36.3z M360,272h-32V80h32V272z M344,336
		c-8.8,0-16-7.2-16-16v-32h32v32C360,328.8,352.8,336,344,336z"/>
	<path d="M496,8h-96c-4.4,0-8,3.6-8,8v480c0,4.4,3.6,8,8,8h96c4.4,0,8-3.6,8-8V16C504,11.6,500.4,8,496,8z M488,488h-80v-32h48v-16
		h-48v-16h32v-16h-32v-16h32v-16h-32v-16h32v-16h-32v-16h48v-16h-48v-16h32v-16h-32v-16h32v-16h-32v-16h32v-16h-32v-16h48v-16h-48
		v-16h32v-16h-32v-16h32v-16h-32v-16h32V88h-32V72h48V56h-48V24h80V488z"/>
</g>
</svg>
